<?xml version="1.0" encoding="utf-8"?>
<!-- Generator: Adobe Illustrator 16.0.0, SVG Export Plug-In . SVG Version: 6.00 Build 0)  -->
<!DOCTYPE svg PUBLIC "-//W3C//DTD SVG 1.1//EN" "http://www.w3.org/Graphics/SVG/1.1/DTD/svg11.dtd">
<svg version="1.1" id="Layer_1" xmlns="http://www.w3.org/2000/svg" xmlns:xlink="http://www.w3.org/1999/xlink" x="0px" y="0px"
	 width="400px" height="400px" viewBox="0 0 400 400" enable-background="new 0 0 400 400" xml:space="preserve">
<g id="atari">
	<path id="C_1_" fill="none" stroke="#000000" stroke-miterlimit="10" d="M82.98,212v6h-24v-6h-6v-24h6v-6h24v6h6v6h-12v-6h-12v24
		h12v-6h12v6H82.98z"/>
	<path id="O_1_" fill="none" stroke="#000000" stroke-miterlimit="10" d="M157.557,212h-6v6h-24v-6h-6v-24h6v-6h24v6h6V212z
		 M145.557,212v-24h-12v24H145.557z"/>
	<path id="D1_1_" fill="none" stroke="#000000" stroke-miterlimit="10" d="M220.639,206v6h-6v6h-24v-36h24v6h6v6h6v12H220.639z
		 M214.639,194h-6v-6h-6v24h6v-6h6V194z"/>
	<path id="E_1_" fill="none" stroke="#000000" stroke-miterlimit="10" d="M252.488,218v-36h36v6h-24v6h18v6h-18v12h24v6H252.488z"/>
	<path id="D2_1_" fill="none" stroke="#000000" stroke-miterlimit="10" d="M342.133,206v6h-6v6h-24v-36h24v6h6v6h6v12H342.133z
		 M336.133,194h-6v-6h-6v24h6v-6h6V194z"/>
</g>
<g id="impact">
	<path id="C" fill="none" stroke="#000000" stroke-miterlimit="10" d="M101.461,193.598H75.668v-17.24
		c0-5.013-0.276-8.142-0.827-9.384c-0.551-1.244-1.769-1.866-3.646-1.866c-2.125,0-3.472,0.757-4.044,2.267
		c-0.573,1.511-0.857,4.779-0.857,9.803v46.073c0,4.819,0.284,7.965,0.857,9.435c0.572,1.472,1.858,2.207,3.86,2.207
		c1.92,0,3.176-0.735,3.768-2.211c0.591-1.475,0.889-4.934,0.889-10.381v-12.467h25.793v3.865c0,10.266-0.727,17.548-2.175,21.843
		c-1.45,4.296-4.656,8.058-9.619,11.29c-4.962,3.23-11.081,4.848-18.35,4.848c-7.558,0-13.785-1.369-18.687-4.104
		c-4.901-2.736-8.148-6.525-9.741-11.365c-1.593-4.84-2.39-12.121-2.39-21.842v-28.979c0-7.147,0.245-12.508,0.735-16.083
		c0.49-3.574,1.95-7.016,4.381-10.324c2.428-3.308,5.798-5.912,10.109-7.812c4.309-1.899,9.26-2.849,14.857-2.849
		c7.597,0,13.867,1.469,18.809,4.405c4.94,2.938,8.188,6.599,9.742,10.983c1.552,4.385,2.328,11.207,2.328,20.466L101.461,193.598
		L101.461,193.598z"/>
	<path id="O" fill="none" stroke="#000000" stroke-miterlimit="10" d="M169.394,208.486c0,9.965-0.237,17.021-0.705,21.166
		c-0.47,4.146-1.94,7.936-4.411,11.365c-2.473,3.432-5.812,6.065-10.018,7.903c-4.207,1.838-9.108,2.759-14.704,2.759
		c-5.31,0-10.078-0.869-14.306-2.604s-7.628-4.341-10.201-7.812c-2.573-3.472-4.105-7.25-4.595-11.334
		c-0.49-4.085-0.735-11.232-0.735-21.443v-16.972c0-9.965,0.235-17.022,0.705-21.167c0.468-4.145,1.938-7.934,4.411-11.365
		c2.471-3.431,5.81-6.065,10.017-7.904c4.206-1.838,9.106-2.757,14.704-2.757c5.308,0,10.079,0.868,14.306,2.604
		c4.228,1.736,7.628,4.34,10.201,7.812c2.574,3.472,4.105,7.25,4.595,11.334c0.49,4.084,0.735,11.233,0.735,21.443L169.394,208.486
		L169.394,208.486z M143.6,175.891c0-4.615-0.255-7.566-0.765-8.853c-0.513-1.287-1.562-1.93-3.155-1.93
		c-1.348,0-2.381,0.521-3.094,1.562c-0.715,1.042-1.072,4.115-1.072,9.221v46.318c0,5.76,0.235,9.312,0.705,10.66
		c0.468,1.349,1.562,2.021,3.278,2.021c1.755,0,2.879-0.773,3.37-2.328c0.49-1.551,0.735-5.248,0.735-11.088v-45.583H143.6z"/>
	<path id="D1" fill="none" stroke="#000000" stroke-miterlimit="10" d="M178.771,150.404h19.299c12.459,0,20.883,0.573,25.274,1.715
		c4.391,1.144,7.729,3.024,10.018,5.637c2.287,2.614,3.716,5.524,4.287,8.731c0.572,3.207,0.859,9.507,0.859,18.901v34.738
		c0,8.905-0.42,14.856-1.256,17.858c-0.838,3.004-2.299,5.354-4.381,7.047c-2.084,1.695-4.658,2.88-7.721,3.554
		c-3.062,0.675-7.68,1.011-13.846,1.011H178.77L178.771,150.404L178.771,150.404z M204.564,167.375v65.25
		c3.717,0,6.004-0.744,6.862-2.236c0.857-1.49,1.285-5.545,1.285-12.162V179.69c0-4.493-0.146-7.373-0.428-8.639
		c-0.287-1.265-0.941-2.195-1.961-2.787C209.303,167.672,207.383,167.375,204.564,167.375z"/>
	<path id="E" fill="none" stroke="#000000" stroke-miterlimit="10" d="M248.126,150.404h43.009v19.851h-17.216v18.81h16.113v18.871
		h-16.113v21.812h18.933v19.851h-44.726V150.404L248.126,150.404z"/>
	<path id="D2" fill="none" stroke="#000000" stroke-miterlimit="10" d="M300.266,150.404h19.299c12.458,0,20.882,0.573,25.272,1.715
		c4.39,1.144,7.729,3.024,10.018,5.637c2.286,2.614,3.717,5.524,4.288,8.731S360,175.994,360,185.388v34.738
		c0,8.905-0.418,14.856-1.256,17.858c-0.838,3.004-2.298,5.354-4.381,7.047c-2.083,1.695-4.656,2.88-7.721,3.554
		c-3.062,0.675-7.68,1.011-13.846,1.011h-32.533v-99.192H300.266z M326.058,167.375v65.25c3.718,0,6.005-0.744,6.862-2.236
		c0.857-1.49,1.286-5.545,1.286-12.162V179.69c0-4.493-0.143-7.373-0.429-8.639c-0.285-1.265-0.939-2.195-1.96-2.787
		C330.795,167.672,328.876,167.375,326.058,167.375z"/>
</g>
</svg>
